<svg xmlns="http://www.w3.org/2000/svg" viewBox="0 0 192 192">
  <!-- Background -->
  <rect width="192" height="192" rx="40" fill="#1a1133"/>
  <!-- Body -->
  <rect x="48" y="80" width="96" height="80" rx="16" fill="#7c3aed"/>
  <!-- Head -->
  <rect x="60" y="40" width="72" height="56" rx="14" fill="#a855f7"/>
  <!-- Eyes -->
  <circle cx="80" cy="64" r="10" fill="#0f0b1e"/>
  <circle cx="112" cy="64" r="10" fill="#0f0b1e"/>
  <circle cx="83" cy="61" r="4" fill="#22c55e"/>
  <circle cx="115" cy="61" r="4" fill="#22c55e"/>
  <!-- Antenna -->
  <line x1="96" y1="40" x2="96" y2="20" stroke="#fbbf24" stroke-width="5" stroke-linecap="round"/>
  <circle cx="96" cy="16" r="7" fill="#fbbf24"/>
  <!-- Mouth -->
  <rect x="72" y="82" width="48" height="8" rx="4" fill="#0f0b1e"/>
  <!-- Arms -->
  <rect x="16" y="88" width="32" height="16" rx="8" fill="#7c3aed"/>
  <rect x="144" y="88" width="32" height="16" rx="8" fill="#7c3aed"/>
  <!-- Legs -->
  <rect x="64" y="152" width="24" height="24" rx="8" fill="#6d28d9"/>
  <rect x="104" y="152" width="24" height="24" rx="8" fill="#6d28d9"/>
  <!-- Chest panel -->
  <rect x="72" y="100" width="48" height="36" rx="8" fill="#6d28d9"/>
  <rect x="78" y="106" width="16" height="8" rx="4" fill="#22c55e"/>
  <rect x="98" y="106" width="16" height="8" rx="4" fill="#fbbf24"/>
  <rect x="78" y="120" width="36" height="6" rx="3" fill="#4c1d95"/>
</svg>
